<svg width="24" height="23" viewBox="0 0 24 23" fill="none" xmlns="http://www.w3.org/2000/svg">
<path d="M9 21.0079C9.55228 21.0079 10 20.5814 10 20.0552C10 19.529 9.55228 19.1024 9 19.1024C8.44772 19.1024 8 19.529 8 20.0552C8 20.5814 8.44772 21.0079 9 21.0079Z" stroke="#32AA62" stroke-width="2" stroke-linecap="round" stroke-linejoin="round"/>
<path d="M20 21.0079C20.5523 21.0079 21 20.5814 21 20.0552C21 19.529 20.5523 19.1024 20 19.1024C19.4477 19.1024 19 19.529 19 20.0552C19 20.5814 19.4477 21.0079 20 21.0079Z" stroke="#32AA62" stroke-width="2" stroke-linecap="round" stroke-linejoin="round"/>
<path d="M1 1H5L7.68 13.7575C7.77144 14.1961 8.02191 14.5901 8.38755 14.8706C8.75318 15.151 9.2107 15.3 9.68 15.2914H19.4C19.8693 15.3 20.3268 15.151 20.6925 14.8706C21.0581 14.5901 21.3086 14.1961 21.4 13.7575L23 5.7638H6" stroke="#32AA62" stroke-width="2" stroke-linecap="round" stroke-linejoin="round"/>
</svg>
