<svg width="55" height="55" viewBox="0 0 55 55" fill="none" xmlns="http://www.w3.org/2000/svg">
<g clip-path="url(#clip0)">
<path d="M36.0938 9.23828C35.5008 9.23828 35.0195 9.71953 35.0195 10.3125C35.0195 10.9055 35.5008 11.3867 36.0938 11.3867C36.6867 11.3867 37.168 10.9055 37.168 10.3125C37.168 9.71953 36.6867 9.23828 36.0938 9.23828Z" fill="#32AA62"/>
<path d="M46.8554 27.1975C45.6359 22.8235 40.3196 15.9567 40.9797 3.92595C40.9959 3.6314 40.8901 3.34308 40.6872 3.12866C40.4844 2.91436 40.2022 2.79297 39.9071 2.79297H15.0926C14.7975 2.79297 14.5153 2.91436 14.3125 3.12866C14.1097 3.34297 14.0039 3.63129 14.02 3.92595C14.677 15.9012 9.37671 22.8384 8.13652 27.1885C5.89409 35.0313 9.55223 45.1612 14.6779 51.7899C14.8813 52.053 15.1951 52.207 15.5277 52.207H39.4731C39.8056 52.207 40.1193 52.053 40.3228 51.79C45.2014 45.4827 49.022 34.9381 46.8554 27.1975ZM13.3675 20.4287C15.3817 15.3273 16.3362 10.1227 16.21 4.94151H38.7895C38.6633 10.1206 39.6176 15.3242 41.631 20.4263C41.7163 20.6424 41.8056 20.8604 41.8981 21.0808C37.4784 23.1746 32.5227 24.2773 27.4998 24.2773C22.477 24.2773 17.5211 23.1746 13.1013 21.0808C13.1928 20.8625 13.2818 20.6456 13.3675 20.4287ZM26.4256 50.0586H16.0602C10.5271 42.662 8.8759 34.2684 9.93412 28.8949C15.7513 31.1283 21.2626 35.9402 26.4256 39.8506V50.0586ZM10.5144 26.8171C10.8764 25.8161 11.3272 24.8837 11.8309 23.8439C11.9582 23.5812 12.0876 23.3136 12.2183 23.0394C16.9152 25.2575 22.174 26.4258 27.4998 26.4258C32.8256 26.4258 38.0842 25.2575 42.781 23.0395C42.9113 23.3128 43.0402 23.5795 43.167 23.8412C43.6713 24.8827 44.1224 25.8164 44.4806 26.8186C38.3404 29.1298 32.5543 34.1234 27.4998 37.97C22.4237 34.1073 16.6561 29.1277 10.5144 26.8171ZM38.9388 50.0586H28.5741V39.8506C33.7737 35.9119 39.2509 31.1322 45.0484 28.9013C46.3257 35.6901 42.995 44.5767 38.9388 50.0586Z" fill="#32AA62"/>
<path d="M38.7197 18.6847C38.2498 17.2501 37.8553 15.7968 37.5469 14.3649C37.4219 13.7851 36.8504 13.4157 36.2706 13.541C35.6906 13.6659 35.3217 14.2373 35.4467 14.8173C35.7708 16.3219 36.1851 17.8481 36.6779 19.3534C36.8623 19.9163 37.4682 20.2249 38.0332 20.0399C38.597 19.8553 38.9044 19.2485 38.7197 18.6847Z" fill="#32AA62"/>
<path d="M53.9259 11.3868H47.281L49.744 8.92376C50.1635 8.50428 50.1635 7.82409 49.744 7.4045C49.3246 6.98491 48.6444 6.98501 48.2248 7.4045L43.9279 11.7014C43.5084 12.1209 43.5084 12.801 43.9279 13.2206L48.2248 17.5175C48.6443 17.937 49.3245 17.937 49.744 17.5175C50.1635 17.098 50.1635 16.4178 49.744 15.9982L47.281 13.5353H53.9259C54.5192 13.5353 55.0001 13.0543 55.0001 12.4611C55.0001 11.8678 54.5192 11.3868 53.9259 11.3868Z" fill="#32AA62"/>
<path d="M11.0722 11.7013L6.77531 7.40446C6.35583 6.98497 5.67563 6.98497 5.25604 7.40446C4.83646 7.82394 4.83656 8.50413 5.25604 8.92372L7.71912 11.3867H1.07422C0.480928 11.3867 0 11.8676 0 12.4609C0 13.0542 0.480928 13.5351 1.07422 13.5351H7.71912L5.25604 15.9982C4.83656 16.4177 4.83656 17.0979 5.25604 17.5175C5.67553 17.937 6.35572 17.937 6.77531 17.5175L11.0722 13.2206C11.4917 12.8011 11.4917 12.1209 11.0722 11.7013Z" fill="#32AA62"/>
</g>
<defs>
<clipPath id="clip0">
<rect width="55" height="55" fill="#32AA62"/>
</clipPath>
</defs>
</svg>
