<svg width="55" height="55" viewBox="0 0 55 55" fill="none" xmlns="http://www.w3.org/2000/svg">
<path d="M45.1961 2.94064L45.1961 2.94068C50.9522 13.1673 53.9958 24.8151 53.9958 36.6231V43.6133C53.9958 43.8449 53.865 44.0566 53.6579 44.1601L53.6578 44.1602C53.4541 44.262 53.2218 44.3801 52.9614 44.5125C48.2424 46.9116 34.2995 54 14.6052 54C10.4536 54 6.57406 52.1151 3.95761 48.8162L3.95759 48.8162C1.3518 45.5309 0.408352 41.2792 1.37595 37.1406C2.49286 32.3647 6.41174 28.5032 11.1324 27.3229C15.8751 26.137 20.6024 27.4423 23.9395 30.6355L24.3175 30.9972L24.8302 30.893C29.3853 29.9664 34.1243 30.1183 38.6188 31.3471L39.8825 31.6925V30.3825V17.7246C39.8825 16.2838 38.712 15.1133 37.2712 15.1133H27.6033C25.4901 15.1133 23.7693 13.3925 23.7693 11.2793V4.83398C23.7693 2.72081 25.4901 1 27.6033 1H41.8336C43.2405 1 44.5261 1.75009 45.1961 2.94064Z" stroke="#32AA62" stroke-width="2"/>
</svg>
