<svg width="55" height="55" viewBox="0 0 55 55" fill="none" xmlns="http://www.w3.org/2000/svg">
<g clip-path="url(#clip0)">
<path d="M27.5405 20.1967C27.5405 21.5096 27.7276 22.8082 28.0964 24.0559C28.2243 24.4882 28.6785 24.735 29.1105 24.6073C29.5429 24.4795 29.7896 24.0255 29.6618 23.5931C29.3374 22.4955 29.1729 21.3528 29.1729 20.1966C29.1729 13.602 34.538 8.23681 41.1327 8.23681C47.7273 8.23681 53.0925 13.6019 53.0925 20.1966C53.0925 26.4736 48.192 31.7153 41.936 32.1298C41.4863 32.1597 41.1457 32.5484 41.1756 32.9982C41.2043 33.4297 41.5631 33.7604 41.9893 33.7604C42.0074 33.7604 42.0257 33.7598 42.0441 33.7586C49.1549 33.2875 54.725 27.3303 54.725 20.1965C54.725 12.7018 48.6276 6.60425 41.1328 6.60425C33.638 6.60425 27.5405 12.7019 27.5405 20.1967Z" fill="#32AA62"/>
<path d="M41.1327 30.1829C46.6392 30.1829 51.119 25.7031 51.119 20.1967C51.119 14.6903 46.6392 10.2104 41.1327 10.2104C37.1102 10.2104 33.4987 12.6044 31.9317 16.3093C31.756 16.7245 31.9503 17.2035 32.3653 17.379C32.7803 17.5545 33.2595 17.3605 33.435 16.9452C34.7461 13.8456 37.7676 11.8428 41.1326 11.8428C45.7388 11.8428 49.4864 15.5903 49.4864 20.1966C49.4864 24.8029 45.7388 28.5503 41.1326 28.5503C40.6817 28.5503 40.3164 28.9158 40.3164 29.3666C40.3164 29.8173 40.6819 30.1829 41.1327 30.1829Z" fill="#32AA62"/>
<path d="M37.4615 5.6951H44.8037C45.2546 5.6951 45.62 5.32965 45.62 4.87887V0.90363C45.62 0.452854 45.2546 0.0874023 44.8037 0.0874023H37.4615C37.0106 0.0874023 36.6453 0.452854 36.6453 0.90363V4.87887C36.6453 5.32965 37.0106 5.6951 37.4615 5.6951ZM38.2777 1.71986H43.9875V4.06265H38.2777V1.71986Z" fill="#32AA62"/>
<path d="M28.505 11.1617C28.6644 11.3211 28.8733 11.4008 29.0822 11.4008C29.2911 11.4008 29.5 11.3211 29.6595 11.1617C29.9782 10.8429 29.9782 10.3262 29.6595 10.0075L28.1455 8.49352L29.4296 7.20954L30.9434 8.72347C31.2623 9.04224 31.779 9.04224 32.0978 8.72347C32.4166 8.40471 32.4166 7.88798 32.0978 7.56922L30.0067 5.47805C29.688 5.15939 29.1713 5.15928 28.8524 5.47805L26.414 7.91639C26.261 8.06951 26.175 8.27705 26.175 8.49352C26.175 8.70998 26.261 8.91763 26.414 9.07064L28.505 11.1617Z" fill="#32AA62"/>
<path d="M41.1326 21.0128C41.5835 21.0128 41.9489 20.6473 41.9489 20.1965V15.6265C41.9489 15.1758 41.5835 14.8103 41.1326 14.8103C40.6818 14.8103 40.3164 15.1758 40.3164 15.6265V20.1965C40.3164 20.6473 40.6819 21.0128 41.1326 21.0128Z" fill="#32AA62"/>
<path d="M54.8107 54.5823C54.8175 54.573 54.8249 54.5641 54.8314 54.5545C54.8394 54.5429 54.8462 54.5305 54.8536 54.5184C54.8599 54.508 54.8666 54.498 54.8725 54.4875C54.879 54.4756 54.8844 54.4631 54.8903 54.4508C54.8959 54.4393 54.902 54.4281 54.907 54.4163C54.9121 54.4043 54.9161 54.3918 54.9207 54.3795C54.9254 54.3669 54.9305 54.3545 54.9346 54.3415C54.9384 54.3293 54.9411 54.3166 54.9444 54.3042C54.9479 54.2906 54.952 54.2773 54.9549 54.2635C54.9575 54.2509 54.9589 54.2378 54.961 54.225C54.9632 54.2109 54.966 54.197 54.9674 54.1826C54.9687 54.1698 54.9688 54.1567 54.9696 54.1438C54.9703 54.1299 54.9718 54.1161 54.9719 54.102L55.0001 49.6823C55.0008 49.5851 54.9832 49.49 54.9507 49.4003C54.8116 46.9641 53.9064 44.9694 52.2496 43.4663C48.8284 40.3627 43.2434 40.3157 41.3396 40.3999L40.6454 38.372L41.2051 38.1667C41.6284 38.0115 41.8457 37.5427 41.6905 37.1194C41.5352 36.6961 41.0665 36.4789 40.6431 36.6341L40.1165 36.8271L39.4921 35.0034L40.0249 34.808C40.4481 34.6528 40.6654 34.184 40.5102 33.7606C40.3549 33.3374 39.8862 33.1202 39.4629 33.2754L38.9633 33.4585L38.339 31.6347L38.8445 31.4494C39.2677 31.2942 39.4851 30.8254 39.3299 30.402C39.1746 29.9788 38.7057 29.7616 38.2825 29.9167L37.8102 30.0899L37.1858 28.2661L37.6642 28.0907C38.0875 27.9355 38.3048 27.4667 38.1496 27.0433C37.9944 26.6201 37.5255 26.4028 37.1022 26.558L36.657 26.7213L35.5436 23.4686C35.3975 23.042 34.9337 22.8147 34.5071 22.9606C34.3041 23.0302 34.1469 23.1721 34.0529 23.3474C34.026 23.3749 34.0001 23.4036 33.9766 23.4354C32.6784 25.1963 30.7722 26.3465 28.609 26.6738C26.4456 27.001 24.2846 26.4664 22.5235 25.1682C20.7624 23.87 19.6124 21.9636 19.2851 19.8005C18.9578 17.6373 19.4925 15.4762 20.7907 13.7151C21.0441 13.3713 20.9897 12.8904 20.666 12.612C20.3422 12.3336 19.8586 12.3515 19.5566 12.6537L4.81008 27.4002C4.49229 27.7181 4.49121 28.233 4.80779 28.5521L7.57241 31.3387C7.73196 31.4996 7.94189 31.5801 8.15182 31.5801C8.35958 31.5801 8.56745 31.5012 8.72667 31.3433C9.04663 31.0258 9.04869 30.509 8.73124 30.189L6.53918 27.9796L8.48539 26.0334L14.4364 32.0314L13.4085 33.0593C13.0898 33.3781 13.0898 33.8949 13.4087 34.2137C13.568 34.373 13.7769 34.4528 13.9858 34.4528C14.1946 34.4528 14.4036 34.3731 14.563 34.2137L15.5862 33.1904L16.4962 34.1075L16.0206 34.5831C15.7018 34.9018 15.7018 35.4186 16.0206 35.7373C16.18 35.8968 16.389 35.9764 16.5978 35.9764C16.8067 35.9764 17.0156 35.8968 17.1751 35.7373L17.646 35.2664L32.5137 50.2518C32.6669 50.4062 32.8756 50.4932 33.0931 50.4932H37.8196V52.1921C37.8196 52.6429 38.185 53.0084 38.6359 53.0084C39.0867 53.0084 39.4521 52.6429 39.4521 52.1921V50.4932H42.1732V51.648C42.1732 52.0988 42.5385 52.4642 42.9894 52.4642C43.4403 52.4642 43.8056 52.0988 43.8056 51.648V50.4932H46.0907V51.1038C46.0907 51.5546 46.4561 51.9201 46.907 51.9201C47.3578 51.9201 47.7232 51.5546 47.7232 51.1038V50.4932H50.0086V50.7773C50.0086 51.2281 50.374 51.5936 50.8249 51.5936C51.2757 51.5936 51.6411 51.2281 51.6411 50.7773V50.4932H53.3393V53.2804H31.6412L11.0618 32.5379C10.7443 32.218 10.2274 32.2159 9.90758 32.5334C9.58762 32.8508 9.58556 33.3676 9.90301 33.6876L29.3417 53.2803H20.8967C20.4458 53.2803 20.0805 53.6458 20.0805 54.0966C20.0805 54.5473 20.4458 54.9128 20.8967 54.9128H31.3013H54.1558H54.1559C54.184 54.9128 54.2118 54.9114 54.2391 54.9085C54.2482 54.9076 54.2571 54.9057 54.2662 54.9044C54.2842 54.902 54.3023 54.8998 54.3199 54.8962C54.3316 54.8938 54.3427 54.8904 54.3541 54.8874C54.3687 54.8837 54.3836 54.8806 54.3979 54.8762C54.412 54.8719 54.4255 54.8662 54.4392 54.8612C54.4503 54.8571 54.4618 54.8536 54.4725 54.849C54.488 54.8425 54.5028 54.8348 54.5178 54.8274C54.5264 54.8231 54.5353 54.8194 54.5437 54.8148C54.5589 54.8066 54.5735 54.7972 54.5881 54.788C54.5956 54.7833 54.6034 54.7791 54.6107 54.7741C54.6246 54.7648 54.6376 54.7544 54.6509 54.7443C54.6584 54.7385 54.6663 54.7333 54.6735 54.7273C54.6858 54.7172 54.6973 54.7061 54.709 54.6953C54.7165 54.6885 54.7244 54.6821 54.7315 54.6749C54.7424 54.6641 54.7522 54.6525 54.7624 54.6411C54.7696 54.6331 54.7774 54.6255 54.7842 54.6172C54.7937 54.606 54.802 54.594 54.8107 54.5823ZM28.8532 28.288C29.479 28.1933 30.0863 28.0399 30.6702 27.834L31.4411 30.563C27.4358 32.8655 25.9567 35.9596 25.4278 38.1981C25.4072 38.2855 25.3877 38.3724 25.3695 38.4585C24.2868 34.9774 24.3043 32.5609 24.5824 31.0279C24.8513 29.5448 25.3975 28.6641 25.7137 28.2575C26.7384 28.4333 27.7953 28.448 28.8532 28.288ZM17.6711 20.0449C18.0635 22.6392 19.4429 24.9254 21.555 26.4823C22.3266 27.051 23.1627 27.4961 24.0391 27.8147C23.0631 29.4149 21.8593 32.9349 23.9117 39.2636L15.3268 30.6109C16.6768 29.0053 17.4131 26.9985 17.4131 24.8768C17.4131 22.7676 16.6849 20.7703 15.3494 19.1695L17.7167 16.8023C17.5239 17.8589 17.5058 18.9516 17.6711 20.0449ZM14.189 20.33C15.2196 21.6179 15.7806 23.2042 15.7806 24.8768C15.7806 26.5596 15.2133 28.1538 14.171 29.4461L9.63997 24.8791L14.189 20.33ZM26.8595 42.2349C26.7735 41.7092 26.6074 40.2486 27.0333 38.5033C27.6709 35.8921 29.3064 33.7711 31.8997 32.1866L32.767 35.2572C32.8686 35.6168 33.1959 35.8517 33.5521 35.8517C33.6255 35.8517 33.7002 35.8417 33.7744 35.8208C34.2081 35.6982 34.4606 35.2473 34.338 34.8135L33.1879 30.7414C33.1876 30.7402 33.1873 30.739 33.1869 30.7378L32.1747 27.1541C33.0204 26.6823 33.7932 26.0848 34.4711 25.3754L35.1242 27.2833L33.8375 27.7551C33.4143 27.9102 33.197 28.3791 33.3521 28.8024C33.4734 29.133 33.7858 29.3379 34.1186 29.3379C34.2119 29.3379 34.3068 29.3218 34.3995 29.2878L35.653 28.8282L36.2774 30.652L35.0178 31.1139C34.5946 31.2691 34.3772 31.7379 34.5324 32.1613C34.6536 32.4918 34.9661 32.6967 35.2989 32.6967C35.3922 32.6967 35.4871 32.6806 35.5798 32.6467L36.8062 32.197L37.4306 34.0207L36.1982 34.4726C35.7749 34.6278 35.5576 35.0966 35.7128 35.52C35.834 35.8505 36.1465 36.0554 36.4793 36.0554C36.5725 36.0554 36.6674 36.0393 36.7602 36.0054L37.9594 35.5657L38.5837 37.3895L37.3784 37.8314C36.9552 37.9866 36.7379 38.4555 36.893 38.8788C37.0143 39.2093 37.3267 39.4143 37.6595 39.4143C37.7528 39.4143 37.8477 39.3982 37.9404 39.3642L39.1126 38.9344L39.6276 40.4388H37.3138C36.4971 40.4388 35.7719 39.89 35.55 39.1041L35.1544 37.7037C35.0318 37.2699 34.5809 37.0174 34.1469 37.14C33.7132 37.2626 33.4608 37.7136 33.5833 38.1474L33.9789 39.5477C34.3984 41.0334 35.7698 42.0711 37.3138 42.0711C37.3138 42.0711 40.819 42.0696 40.8436 42.0674C40.8452 42.0673 40.8469 42.0675 40.8485 42.0674C40.9155 42.0609 47.6117 41.4585 51.1568 44.679C52.3372 45.7514 53.0431 47.1547 53.2641 48.8611L33.4335 48.8612L26.8595 42.2349Z" fill="#32AA62"/>
<path d="M35.8202 19.5879C36.266 19.5201 36.5722 19.1038 36.5044 18.6581C36.4365 18.2124 36.0186 17.9061 35.5747 17.974C32.6108 18.425 31.353 20.071 30.8198 21.3723C30.2499 22.763 30.3901 24.0507 30.3964 24.1048C30.4443 24.5208 30.7973 24.8275 31.206 24.8275C31.2373 24.8275 31.269 24.8257 31.3007 24.8221C31.7485 24.7704 32.0696 24.3654 32.0179 23.9176C32.0006 23.7671 31.6404 20.224 35.8202 19.5879Z" fill="#32AA62"/>
<path d="M0.816227 14.047H14.8021C15.253 14.047 15.6183 13.6816 15.6183 13.2308C15.6183 12.78 15.253 12.4146 14.8021 12.4146H0.816227C0.365343 12.4146 0 12.78 0 13.2308C0 13.6816 0.365343 14.047 0.816227 14.047Z" fill="#32AA62"/>
<path d="M10.8298 16.6033C10.8298 16.1526 10.4645 15.7871 10.0136 15.7871H0.816227C0.365343 15.7871 0 16.1526 0 16.6033C0 17.0541 0.365343 17.4196 0.816227 17.4196H10.0136C10.4644 17.4196 10.8298 17.0541 10.8298 16.6033Z" fill="#32AA62"/>
<path d="M23.0189 49.9056C23.0189 49.4548 22.6536 49.0894 22.2027 49.0894H10.8843C10.4335 49.0894 10.0681 49.4548 10.0681 49.9056C10.0681 50.3564 10.4335 50.7218 10.8843 50.7218H22.2027C22.6535 50.7218 23.0189 50.3564 23.0189 49.9056Z" fill="#32AA62"/>
</g>
<defs>
<clipPath id="clip0">
<rect width="55" height="55" fill="white"/>
</clipPath>
</defs>
</svg>
