<svg width="55" height="55" viewBox="0 0 55 55" fill="none" xmlns="http://www.w3.org/2000/svg">
<path d="M46.9792 11.4582H43.5417V5.72912C43.5417 5.09662 43.0284 4.58325 42.3959 4.58325C41.7634 4.58325 41.25 5.09662 41.25 5.72912V12.6041C41.25 13.2366 41.7634 13.75 42.3959 13.75H46.9792C47.6117 13.75 48.1251 13.2366 48.1251 12.6041C48.1251 11.9716 47.6117 11.4582 46.9792 11.4582Z" fill="#32AA62"/>
<path d="M11.4584 20.625C13.9861 20.625 16.0417 18.5694 16.0417 16.0416C16.0417 13.5139 13.9861 11.4583 11.4584 11.4583C8.93062 11.4583 6.875 13.5139 6.875 16.0416C6.875 18.5695 8.93062 20.625 11.4584 20.625ZM11.4584 13.75C12.7211 13.75 13.75 14.779 13.75 16.0416C13.75 17.3044 12.721 18.3332 11.4584 18.3332C10.1956 18.3332 9.16673 17.3042 9.16673 16.0416C9.16663 14.779 10.1956 13.75 11.4584 13.75Z" fill="#32AA62"/>
<path d="M17.1876 45.8332H6.65047L2.26659 26.1066C2.12909 25.4879 1.51722 25.1075 0.898468 25.2358C0.27972 25.3733 -0.109899 25.9851 0.0276009 26.6039L4.58346 47.1051V53.8541C4.58346 54.4866 5.09683 55 5.72933 55C6.36183 55 6.8752 54.4866 6.87745 53.8541V48.1249H13.7502V53.854C13.7502 54.4865 14.2636 54.9999 14.8961 54.9999C15.5285 54.9999 16.0419 54.4865 16.0419 53.854V48.1249H17.1878C17.8203 48.1249 18.3337 47.6115 18.3337 46.979C18.3334 46.3466 17.8201 45.8332 17.1876 45.8332Z" fill="#32AA62"/>
<path d="M24.0626 36.6666H16.0417V27.4999C16.0417 24.9721 13.9861 22.9165 11.4584 22.9165C8.93062 22.9165 6.875 24.9721 6.875 27.4999V40.104C6.875 41.9992 8.41725 43.5415 10.3125 43.5415H20.625V51.5623C20.625 53.4576 22.1672 54.9998 24.0625 54.9998C25.9577 54.9998 27.5 53.4576 27.5 51.5623V40.1041C27.5001 38.2088 25.9578 36.6666 24.0626 36.6666ZM25.2084 51.5623C25.2084 52.1948 24.6951 52.7082 24.0626 52.7082C23.4301 52.7082 22.9167 52.1948 22.9167 51.5623V42.3957C22.9167 41.7632 22.4033 41.2498 21.7708 41.2498H10.3126C9.6801 41.2498 9.16673 40.7365 9.16673 40.104V27.4999C9.16673 26.2371 10.1957 25.2082 11.4584 25.2082C12.7211 25.2082 13.75 26.2372 13.75 27.4999V37.8123C13.75 38.4448 14.2634 38.9582 14.8959 38.9582H24.0625C24.695 38.9582 25.2083 39.4716 25.2083 40.1041V51.5623H25.2084Z" fill="#32AA62"/>
<path d="M42.396 0C35.4453 0 29.7917 5.6536 29.7917 12.6042C29.7917 19.5548 35.4452 25.2083 42.3959 25.2083C49.3465 25.2083 55 19.5548 55 12.6042C55.0001 5.6536 49.3466 0 42.396 0ZM42.396 22.9167C36.7103 22.9167 32.0835 18.2898 32.0835 12.6042C32.0835 6.9186 36.7103 2.29173 42.396 2.29173C48.0816 2.29173 52.7084 6.9186 52.7084 12.6042C52.7084 18.2898 48.0816 22.9167 42.396 22.9167Z" fill="#32AA62"/>
</svg>
