<svg width="22" height="22" viewBox="0 0 22 22" fill="none" xmlns="http://www.w3.org/2000/svg">
<path d="M14.9688 15.7242C14.887 15.7242 14.8053 15.6931 14.743 15.6306L6.72832 7.61441C6.60358 7.48967 6.60358 7.28754 6.72832 7.1628C6.85306 7.03806 7.05519 7.03806 7.17971 7.1628L15.1942 15.1792C15.3189 15.304 15.3189 15.5061 15.1942 15.6308C15.1321 15.6929 15.0504 15.7242 14.9688 15.7242Z" fill="#B8B8B8"/>
<path d="M6.95412 15.7242C6.87235 15.7242 6.7908 15.6931 6.72832 15.6308C6.60358 15.5061 6.60358 15.304 6.72832 15.1792L14.7448 7.1628C14.8695 7.03806 15.0714 7.03806 15.1961 7.1628C15.3209 7.28754 15.3209 7.48967 15.1961 7.61441L7.17971 15.6308C7.11745 15.6929 7.03589 15.7242 6.95412 15.7242Z" fill="#B8B8B8"/>
<path d="M10.9631 21.9235C4.9179 21.9235 0 17.0067 0 10.9631C0 4.91812 4.9179 0 10.9631 0C17.0062 0 21.9226 4.91812 21.9226 10.9631C21.9226 17.0065 17.0062 21.9235 10.9631 21.9235ZM10.9631 0.638386C5.26998 0.638386 0.638606 5.26998 0.638606 10.9628C0.638606 16.6544 5.2702 21.2847 10.9631 21.2847C16.6542 21.2847 21.284 16.6542 21.284 10.9628C21.2842 5.26998 16.6542 0.638386 10.9631 0.638386Z" fill="#B8B8B8"/>
</svg>
