<svg width="20" height="18" viewBox="0 0 20 18" fill="none" xmlns="http://www.w3.org/2000/svg">
<path d="M18.3448 14.6808C17.8658 13.671 17.1707 12.7537 16.2983 11.9801C15.4285 11.2043 14.3981 10.5857 13.2641 10.1586C13.254 10.154 13.2438 10.1518 13.2337 10.1473C14.8155 9.13028 15.8438 7.47372 15.8438 5.60473C15.8438 2.50857 13.0255 0 9.54694 0C6.06842 0 3.25006 2.50857 3.25006 5.60473C3.25006 7.47372 4.27838 9.13028 5.86022 10.1495C5.85006 10.154 5.83991 10.1563 5.82975 10.1608C4.69225 10.588 3.67155 11.2004 2.79557 11.9824C1.92393 12.7566 1.22898 13.6737 0.749087 14.683C0.277639 15.6712 0.023377 16.7307 6.34918e-05 17.804C-0.000614197 17.8282 0.004139 17.8522 0.0140431 17.8746C0.0239473 17.8971 0.0388019 17.9176 0.0577317 17.9348C0.0766615 17.9521 0.0992835 17.9658 0.124265 17.9752C0.149246 17.9846 0.176081 17.9894 0.203188 17.9894H1.72663C1.83834 17.9894 1.92721 17.9103 1.92975 17.8131C1.98053 16.0684 2.76764 14.4344 4.15905 13.196C5.59869 11.9146 7.51061 11.2095 9.54694 11.2095C11.5833 11.2095 13.4952 11.9146 14.9348 13.196C16.3262 14.4344 17.1133 16.0684 17.1641 17.8131C17.1667 17.9125 17.2555 17.9894 17.3672 17.9894H18.8907C18.9178 17.9894 18.9446 17.9846 18.9696 17.9752C18.9946 17.9658 19.0172 17.9521 19.0361 17.9348C19.0551 17.9176 19.0699 17.8971 19.0798 17.8746C19.0897 17.8522 19.0945 17.8282 19.0938 17.804C19.0684 16.7238 18.8171 15.6729 18.3448 14.6808ZM9.54694 9.49188C8.38151 9.49188 7.28463 9.08734 6.45944 8.35285C5.63424 7.61836 5.17975 6.64205 5.17975 5.60473C5.17975 4.5674 5.63424 3.59109 6.45944 2.8566C7.28463 2.12211 8.38151 1.71758 9.54694 1.71758C10.7124 1.71758 11.8092 2.12211 12.6344 2.8566C13.4596 3.59109 13.9141 4.5674 13.9141 5.60473C13.9141 6.64205 13.4596 7.61836 12.6344 8.35285C11.8092 9.08734 10.7124 9.49188 9.54694 9.49188Z" fill="#32AA62"/>
</svg>
