<svg width="25" height="25" viewBox="0 0 25 25" fill="none" xmlns="http://www.w3.org/2000/svg">
<path d="M12.5 0C5.59651 0 0 5.59651 0 12.5C0 19.4035 5.59651 25 12.5 25C19.4035 25 25 19.4035 25 12.5C25 5.59651 19.4035 0 12.5 0ZM17.9206 14.1522C18.0189 14.2739 18.2529 14.5109 18.623 14.8638H18.6316L18.6402 14.8721L18.6489 14.881L18.6663 14.8983C19.4816 15.6557 20.0337 16.2947 20.3229 16.8151C20.3404 16.8438 20.3591 16.8803 20.3794 16.9236C20.3994 16.967 20.4197 17.0435 20.44 17.1533C20.46 17.2635 20.4585 17.3614 20.4357 17.4481C20.4126 17.5345 20.3404 17.6146 20.219 17.6866C20.0975 17.7591 19.9269 17.7951 19.7072 17.7951L17.4869 17.8301C17.3482 17.859 17.1862 17.8445 17.0012 17.7867C16.8159 17.7287 16.6658 17.6651 16.5502 17.5959L16.3766 17.4914C16.203 17.37 16.0007 17.185 15.7695 16.9365C15.5381 16.6879 15.3401 16.4638 15.1753 16.2643C15.0105 16.0648 14.8341 15.8975 14.646 15.7611C14.4579 15.6253 14.2947 15.5804 14.156 15.6268C14.1388 15.6329 14.1155 15.643 14.0866 15.6572C14.0574 15.6716 14.0085 15.7132 13.9391 15.7829C13.8696 15.8524 13.8075 15.9378 13.7525 16.0387C13.6975 16.1401 13.6483 16.2904 13.605 16.4899C13.5616 16.6891 13.5426 16.9135 13.5487 17.1622C13.5487 17.2486 13.5383 17.3284 13.5183 17.4007C13.498 17.4729 13.4762 17.5264 13.4531 17.5609L13.4184 17.6042C13.3142 17.7145 13.1611 17.7779 12.9588 17.7951H11.9613C11.5507 17.8184 11.1286 17.7708 10.6952 17.6521C10.2617 17.5333 9.88122 17.3804 9.55472 17.1923C9.22772 17.0047 8.93013 16.8139 8.66143 16.6202C8.39248 16.4263 8.18868 16.2602 8.05002 16.1216L7.83329 15.9132C7.77549 15.8557 7.6959 15.7687 7.59475 15.6529C7.49361 15.5373 7.28702 15.2744 6.97472 14.8638C6.66243 14.4531 6.35596 14.0169 6.05532 13.554C5.75468 13.0914 5.40056 12.4812 4.9927 11.7238C4.58509 10.9667 4.2079 10.1803 3.86088 9.36486C3.82615 9.27259 3.80866 9.19452 3.80866 9.13089C3.80866 9.06752 3.81728 9.02113 3.83477 8.99198L3.86949 8.94002C3.95619 8.83 4.12095 8.77499 4.3638 8.77499L6.74025 8.75776C6.8097 8.76942 6.87612 8.78818 6.93974 8.81428C7.00337 8.84014 7.04975 8.86473 7.07865 8.8878L7.122 8.91391C7.21452 8.97779 7.28372 9.07005 7.33011 9.19147C7.4457 9.48096 7.57878 9.78007 7.7291 10.0893C7.87942 10.3986 7.99805 10.6343 8.08475 10.7961L8.2234 11.0478C8.39096 11.3945 8.55294 11.6954 8.70909 11.9497C8.86549 12.2042 9.00541 12.4024 9.12988 12.5439C9.25409 12.6856 9.37399 12.7971 9.48983 12.8777C9.60542 12.9588 9.70377 12.9994 9.78489 12.9994C9.86575 12.9994 9.94383 12.9849 10.0191 12.956C10.0305 12.9502 10.045 12.9357 10.0625 12.9127C10.08 12.8896 10.1144 12.826 10.1666 12.7215C10.2186 12.6176 10.2576 12.4817 10.2838 12.3139C10.3099 12.1466 10.3372 11.9124 10.3661 11.6118C10.395 11.3109 10.395 10.9497 10.3661 10.5276C10.3545 10.2962 10.3284 10.0853 10.2881 9.8944C10.2475 9.70377 10.2069 9.57069 10.1666 9.49541L10.1144 9.39148C9.96994 9.19502 9.72431 9.07056 9.37728 9.01834C9.302 9.00719 9.31645 8.93773 9.42063 8.81048C9.51898 8.70047 9.62874 8.61403 9.75016 8.55015C10.0566 8.40009 10.7476 8.33063 11.8232 8.34178C12.2972 8.34787 12.6876 8.38513 12.994 8.45459C13.1096 8.48374 13.2065 8.52252 13.2845 8.5717C13.3626 8.62062 13.4219 8.69033 13.4625 8.77956C13.5028 8.86929 13.5332 8.96181 13.5535 9.05713C13.5738 9.15269 13.5839 9.2845 13.5839 9.45181C13.5839 9.61962 13.5811 9.77881 13.5753 9.92887C13.5695 10.0792 13.5624 10.2832 13.5538 10.5403C13.5451 10.7976 13.5406 11.0364 13.5406 11.2559C13.5406 11.3198 13.5378 11.4409 13.5319 11.6201C13.5261 11.7996 13.5243 11.9383 13.5276 12.0364C13.5304 12.1347 13.5406 12.2521 13.5578 12.3877C13.5753 12.5236 13.6085 12.6366 13.6577 12.7259C13.7066 12.8156 13.7717 12.8863 13.8529 12.9383C13.899 12.9502 13.9482 12.9616 14.0004 12.9733C14.0524 12.9847 14.1274 12.9532 14.2257 12.8777C14.3238 12.8027 14.4339 12.7028 14.5553 12.5786C14.6767 12.4546 14.827 12.261 15.0062 11.9976C15.1852 11.735 15.3819 11.4239 15.5958 11.0653C15.9429 10.464 16.2521 9.81328 16.5239 9.11365C16.5469 9.0556 16.5758 9.00516 16.6106 8.96181C16.6453 8.91821 16.677 8.8878 16.7059 8.87056L16.7406 8.84445C16.752 8.83862 16.7665 8.83152 16.7839 8.8229C16.8014 8.81454 16.839 8.80567 16.8967 8.79679C16.9545 8.78843 17.0123 8.78691 17.0704 8.79274L19.5683 8.77499C19.7936 8.74635 19.9787 8.75345 20.1231 8.79654C20.2676 8.83989 20.3574 8.8878 20.3921 8.93976L20.4443 9.02645C20.5771 9.3968 20.1437 10.2462 19.1434 11.5763C19.0045 11.7616 18.8164 12.0075 18.5797 12.3137C18.1287 12.8921 17.8686 13.2709 17.7997 13.4506C17.7008 13.6871 17.7414 13.9213 17.9206 14.1522Z" fill="url(#paint0_linear)"/>
<defs>
<linearGradient id="paint0_linear" x1="6.01415" y1="-3.27381" x2="27.5307" y2="8.76835" gradientUnits="userSpaceOnUse">
<stop stop-color="#FF7615"/>
<stop offset="1" stop-color="#FF8F20"/>
</linearGradient>
</defs>
</svg>
