<svg width="61" height="61" viewBox="0 0 61 61" fill="none" xmlns="http://www.w3.org/2000/svg">
<g clip-path="url(#clip0)">
<path d="M50.7459 54.7869V59.9483C50.7459 60.5294 50.2753 61 49.6942 61H11.3063C10.7252 61 10.2545 60.5294 10.2545 59.9483V54.7869C10.2545 50.818 12.6144 47.3986 16.0075 45.8565C14.623 44.7549 12.5129 43.2744 10.9776 40.0891C8.83932 35.659 9.20532 30.4327 11.9294 26.3417C13.4097 24.12 14.1985 21.5117 14.1985 18.843V13.1466C14.1985 5.88571 20.0842 0 27.3451 0H33.6554C40.9162 0 46.802 5.88571 46.802 13.1466C46.802 19.1791 46.6546 20.3605 47.3817 22.7593C48.4078 26.1513 49.7631 26.5709 50.8077 30.0228C52.4499 35.4489 50.6334 41.3666 46.1578 44.9297L44.993 45.8565C48.3861 47.3986 50.7459 50.818 50.7459 54.7869Z" fill="#FFDFBA"/>
<path d="M50.7458 54.787V59.9483C50.7458 60.5291 50.2749 61 49.694 61H11.3061C10.7253 61 10.2544 60.5291 10.2544 59.9483V54.787C10.2544 49.3756 14.6413 44.9836 20.0578 44.9836C20.8637 44.9836 21.6288 44.8087 22.3164 44.4958L22.3492 44.5668L29.8563 50.3787C30.2353 50.6721 30.7649 50.6721 31.144 50.3787L38.6509 44.5668L38.6838 44.4958C39.3714 44.8087 40.1365 44.9836 40.9424 44.9836C46.3379 44.9836 50.7458 49.3547 50.7458 54.787Z" fill="#FF64B8"/>
<path d="M42.5198 19.228C43.0782 19.2598 43.5153 19.7186 43.5153 20.2779V26.5732C43.5153 31.9988 40.1958 36.6488 35.4762 38.6023C26.9418 42.1449 17.4851 35.8516 17.4851 26.5732V20.3694C17.4851 19.7529 18.0131 19.2659 18.627 19.3215C24.9357 19.8935 31.1481 18.3004 36.3647 14.786C36.958 14.3864 37.775 14.6825 37.9623 15.3729C38.6112 17.7648 40.3811 19.1061 42.5198 19.228Z" fill="#FFEBD2"/>
<path d="M46.1576 44.9296L44.9928 45.8565C43.7584 45.2964 42.3872 44.9836 40.9424 44.9836C37.9412 44.9836 35.4958 42.56 35.4958 39.5488V38.6509L35.476 38.6022C40.1957 36.6486 43.5152 31.9987 43.5152 26.5731V20.2778C43.5152 19.7185 43.078 19.2597 42.5197 19.2279C40.3942 19.1068 38.6153 17.7801 37.9622 15.3729C37.7748 14.6825 36.9579 14.3864 36.3646 14.7861C31.1513 18.298 24.9393 19.8938 18.6269 19.3215C18.0129 19.2659 17.485 19.753 17.485 20.3694V26.5733C17.485 31.9988 20.8045 36.6488 25.5241 38.6023L25.5044 38.651V39.5489C25.5044 42.5596 23.0596 44.9837 20.0578 44.9837C18.613 44.9837 17.2418 45.2966 16.0073 45.8566L14.8425 44.9298C9.18806 40.4242 7.92902 32.3492 11.9293 26.3419C13.4096 24.1201 14.1983 21.5118 14.1983 18.8431V13.1465C14.1983 5.88597 20.0843 0 27.3449 0H33.6552C40.9158 0 46.8018 5.88597 46.8018 13.1465V18.8429C46.8018 21.5085 47.5906 24.12 49.0709 26.3417C53.0857 32.371 51.7907 40.4451 46.1576 44.9296Z" fill="#42434D"/>
<path d="M35.6442 40.8093C32.4053 42.1651 28.8459 42.2703 25.3557 40.8093C25.534 40.0697 25.5043 39.5907 25.5043 38.6507L25.524 38.6021C28.6899 39.9162 32.3038 39.9188 35.4759 38.6021L35.4957 38.6507C35.4957 39.5911 35.4659 40.07 35.6442 40.8093Z" fill="#FFD6A6"/>
<path d="M39.5942 1.41483C40.9367 2.09582 40.3533 4.14498 38.8546 4.00313C38.4414 3.96395 38.0225 3.94397 37.5991 3.94397H31.2887C24.0282 3.94397 18.1422 9.82994 18.1422 17.0905V18.6902C18.1422 19.6346 17.4849 19.6041 17.4849 20.3693C17.4849 27.3135 17.513 26.8739 17.4111 27.1735C16.3798 30.2075 15.1412 30.6466 14.1364 33.9667C13.5891 35.7752 13.4274 37.6375 13.617 39.4448C13.7717 40.9198 11.7179 41.6254 10.9773 40.0891C8.85428 35.6907 9.18675 30.4602 11.9291 26.3417C13.4094 24.12 14.1982 21.5117 14.1982 18.843V13.1466C14.1982 5.88597 20.0842 0 27.3448 0H33.6551C35.7924 0 37.8103 0.509955 39.5942 1.41483Z" fill="#4D4E59"/>
<path d="M28.0051 35.2919C29.9691 36.6065 28.4722 39.6473 26.2422 38.8647C21.3403 37.1446 17.4851 32.5697 17.4851 26.5731V20.3692C17.4851 19.7526 18.0136 19.2662 18.6275 19.3214C19.1313 19.3672 19.6845 19.4032 20.2815 19.4215C21.362 19.4543 22.2179 20.3466 22.2179 21.4276V24.4697C22.2179 29.0482 24.5522 32.9806 28.0051 35.2919Z" fill="#FFF3E4"/>
<path d="M24.5175 46.2455C25.1414 46.7285 24.8117 47.7413 24.0226 47.7444C18.4573 47.7651 14.1984 52.2338 14.1984 57.5477V61H11.3061C10.7253 61 10.2544 60.5291 10.2544 59.9483V54.787C10.2544 49.3754 14.6414 44.9836 20.0578 44.9836C20.8637 44.9836 21.6288 44.8087 22.3164 44.4958L22.3492 44.5668L24.5175 46.2455Z" fill="#FA5757"/>
<path d="M36.4829 46.2455C35.8589 46.7285 36.1887 47.7413 36.9777 47.7444C42.543 47.7651 46.802 52.2338 46.802 57.5477V61H49.6942C50.2751 61 50.746 60.5291 50.746 59.9483V54.787C50.746 49.3754 46.359 44.9836 40.9426 44.9836C40.1367 44.9836 39.3716 44.8087 38.684 44.4958L38.6511 44.5668L36.4829 46.2455Z" fill="#FA5757"/>
</g>
<defs>
<clipPath id="clip0">
<rect width="61" height="61" fill="white"/>
</clipPath>
</defs>
</svg>
