<svg width="55" height="55" viewBox="0 0 55 55" fill="none" xmlns="http://www.w3.org/2000/svg">
<g clip-path="url(#clip0)">
<path d="M47.8218 5.18993C38.8382 0.5 27.9389 -0.55746 18.3967 1.31501C17.9602 1.40073 17.6756 1.82408 17.7612 2.26075C17.8469 2.69742 18.2703 2.98188 18.707 2.89626C27.9326 1.08588 38.4485 2.11434 47.076 6.61832C51.5324 8.94486 54.0144 13.8389 53.2519 18.7966L49.3721 44.0253C48.5822 49.1623 44.1589 52.9496 38.9706 52.9496H16.0294C10.832 52.9496 6.41639 49.1533 5.62781 44.0253L1.74794 18.7966C0.985464 13.839 3.46745 8.94486 7.92384 6.61832C10.3368 5.35858 12.9699 4.33786 15.7502 3.58451C16.1796 3.46817 16.4335 3.0257 16.317 2.59623C16.2006 2.16676 15.7583 1.9126 15.3288 2.02937C12.4363 2.81312 9.69405 3.87648 7.17812 5.19004C2.11039 7.83563 -0.711909 13.4022 0.155308 19.0417L4.03517 44.2703C4.946 50.1933 10.046 54.5609 16.0294 54.5609H38.9707C44.9632 54.5609 50.0555 50.1841 50.9649 44.2703L54.8448 19.0417C55.7119 13.4022 52.8897 7.83563 47.8218 5.18993Z" fill="#32AA62"/>
<path d="M32.384 28.1245C32.384 27.6796 32.0233 27.3188 31.5784 27.3188H13.3198C10.0908 27.3188 7.62392 30.1993 8.11398 33.3864L9.65495 43.4066C10.1424 46.5754 12.8232 48.8753 16.0295 48.8753H38.9702C42.1764 48.8753 44.8573 46.5754 45.3447 43.4066L46.8858 33.3864C47.3765 30.1949 44.9046 27.3188 41.68 27.3188H34.801C34.3561 27.3188 33.9954 27.6796 33.9954 28.1245C33.9954 28.5695 34.3561 28.9302 34.801 28.9302H41.68C43.9211 28.9302 45.6333 30.9293 45.2931 33.1414L43.7522 43.1616C43.3865 45.5387 41.3755 47.264 38.9702 47.264H16.0296C13.6244 47.264 11.6133 45.5387 11.2476 43.1616L9.70662 33.1414C9.36598 30.9262 11.0816 28.9302 13.3198 28.9302H31.5784C32.0233 28.9302 32.384 28.5695 32.384 28.1245Z" fill="#32AA62"/>
<path d="M18.1304 35.2427V36.8883C18.1304 37.3332 18.4911 37.6939 18.936 37.6939C19.381 37.6939 19.7417 37.3332 19.7417 36.8883V35.2427C19.7417 34.7977 19.381 34.437 18.936 34.437C18.4911 34.437 18.1304 34.7977 18.1304 35.2427Z" fill="#32AA62"/>
<path d="M36.8696 36.8883V35.2427C36.8696 34.7977 36.5089 34.437 36.064 34.437C35.619 34.437 35.2583 34.7977 35.2583 35.2427V36.8883C35.2583 37.3332 35.619 37.6939 36.064 37.6939C36.5089 37.6939 36.8696 37.3332 36.8696 36.8883Z" fill="#32AA62"/>
<path d="M29.1503 36.31C28.7337 36.7882 28.132 37.0623 27.4998 37.0623C26.8676 37.0623 26.266 36.7882 25.8494 36.3101C25.5571 35.9745 25.0481 35.9397 24.7126 36.232C24.3772 36.5243 24.3423 37.0333 24.6346 37.3688C25.3573 38.1981 26.4015 38.6737 27.4997 38.6737C28.5979 38.6737 29.6421 38.1981 30.3649 37.3689C30.6573 37.0334 30.6223 36.5245 30.2869 36.2321C29.9515 35.9396 29.4425 35.9745 29.1503 36.31Z" fill="#32AA62"/>
<path d="M40.1955 8.12026C32.2172 5.45985 22.79 5.45738 14.8046 8.12026C12.4841 8.89402 11.2183 11.4125 11.983 13.7344L14.2455 20.6046C14.8476 22.4334 16.5459 23.6621 18.4714 23.6621H36.5288C38.4542 23.6621 40.1524 22.4334 40.7546 20.6046L43.017 13.7344C43.7818 11.4126 42.516 8.89402 40.1955 8.12026ZM25.3825 22.0508L27.1734 15.1477C27.2605 14.8119 27.7395 14.8117 27.8268 15.1477L29.6178 22.0509H25.3825V22.0508ZM41.4866 13.2305L39.2242 20.1007C38.8401 21.2671 37.7568 22.0508 36.5288 22.0508H31.2824C31.0907 21.3121 29.5891 15.5239 29.3865 14.7429C29.1635 13.8837 28.3878 13.2835 27.5001 13.2835C26.6123 13.2835 25.8366 13.8837 25.6136 14.7429L23.7177 22.0507H18.4714C17.2432 22.0507 16.1601 21.2671 15.7759 20.1006L13.5134 13.2303C13.0256 11.7492 13.8335 10.1425 15.3143 9.64866C16.1437 9.37204 16.9882 9.12712 17.8449 8.91013L18.5122 11.2133C18.6364 11.6421 19.0843 11.8864 19.5102 11.7628C19.9377 11.639 20.1837 11.1921 20.0598 10.7648L19.4176 8.54844C21.7622 8.063 24.195 7.79316 26.6944 7.74578V10.2298C26.6944 10.6747 27.0551 11.0355 27.5001 11.0355C27.945 11.0355 28.3057 10.6747 28.3057 10.2298V7.746C30.8051 7.79337 33.2379 8.06332 35.5825 8.54866L34.9403 10.765C34.8165 11.1924 35.0626 11.6392 35.4899 11.763C35.9154 11.8864 36.3636 11.6426 36.4879 11.2135L37.1553 8.91035C38.0119 9.12723 38.8563 9.37226 39.6858 9.64876C41.1666 10.1426 41.9744 11.7493 41.4866 13.2305Z" fill="#32AA62"/>
</g>
<defs>
<clipPath id="clip0">
<rect width="55" height="55" fill="white"/>
</clipPath>
</defs>
</svg>
