<svg width="15" height="15" viewBox="0 0 15 15" fill="none" xmlns="http://www.w3.org/2000/svg">
<g clip-path="url(#clip0)">
<path d="M7.35588 14.4239C3.29986 14.4239 0 11.1888 0 7.2123C0 3.2354 3.29986 0 7.35588 0C8.96854 0 10.5087 0.510024 11.8097 1.47513C12.0629 1.66284 12.1159 2.02032 11.928 2.2734C11.7404 2.52631 11.383 2.57978 11.1297 2.39189C10.0269 1.57384 8.72186 1.14146 7.35588 1.14146C3.92929 1.14146 1.14146 3.86482 1.14146 7.21212C1.14146 10.5592 3.92929 13.2824 7.35588 13.2824C10.7826 13.2824 13.5705 10.5592 13.5705 7.21212C13.5705 6.7433 13.5183 6.28748 13.4155 5.85712C13.3425 5.55056 13.5316 5.24271 13.8382 5.16946C14.1437 5.09621 14.4524 5.28538 14.5259 5.59213C14.6493 6.10929 14.7119 6.6543 14.7119 7.2123C14.7118 11.1888 11.4121 14.4239 7.35588 14.4239Z" fill="white"/>
<path d="M7.21167 10.67C7.06059 10.67 6.91536 10.6101 6.80804 10.503L2.90934 6.60465C2.68647 6.38178 2.68647 6.02046 2.90934 5.79759C3.13221 5.57472 3.49353 5.57453 3.71641 5.79759L7.18805 9.26886L14.0035 1.63481C14.2136 1.39967 14.5745 1.37934 14.8093 1.58921C15.0444 1.79908 15.0649 2.15985 14.8551 2.39499L7.63745 10.4794C7.53288 10.5966 7.38473 10.6654 7.22797 10.6698C7.22229 10.67 7.21698 10.67 7.21167 10.67Z" fill="white"/>
</g>
<defs>
<clipPath id="clip0">
<rect width="15" height="14.4239" fill="white"/>
</clipPath>
</defs>
</svg>
