<svg width="25" height="25" viewBox="0 0 25 25" fill="none" xmlns="http://www.w3.org/2000/svg">
<path d="M15.7571 6.20264H9.18086C7.53521 6.20264 6.19629 7.54156 6.19629 9.1872V15.8238C6.19629 17.4694 7.53521 18.8083 9.18086 18.8083H15.7571C17.4027 18.8083 18.7417 17.4694 18.7417 15.8238V9.1872C18.7417 7.54156 17.4027 6.20264 15.7571 6.20264ZM12.4815 16.4793C10.2508 16.4793 8.43611 14.6838 8.43611 12.477C8.43611 10.2701 10.2511 8.47465 12.4815 8.47465C14.712 8.47465 16.5269 10.2701 16.5269 12.477C16.5269 14.6838 14.7122 16.4793 12.4815 16.4793ZM16.5989 9.26274C16.0732 9.26274 15.6471 8.83663 15.6471 8.3109C15.6471 7.78516 16.0732 7.35905 16.5989 7.35905C17.1247 7.35905 17.5508 7.78516 17.5508 8.3109C17.5508 8.83663 17.1247 9.26274 16.5989 9.26274Z" fill="url(#paint0_linear)"/>
<path d="M12.5 0C5.59651 0 0 5.59651 0 12.5C0 19.4035 5.59651 25 12.5 25C19.4035 25 25 19.4035 25 12.5C25 5.59651 19.4035 0 12.5 0ZM20.218 15.824C20.218 18.2838 18.2167 20.2849 15.7571 20.2849H9.18083C6.72098 20.2849 4.71995 18.2836 4.71995 15.824V9.18742C4.71995 6.72757 6.72123 4.72654 9.18083 4.72654H15.7571C18.2169 4.72654 20.218 6.72783 20.218 9.18742V15.824Z" fill="url(#paint1_linear)"/>
<path d="M12.4816 9.94824C11.0633 9.94824 9.90967 11.0826 9.90967 12.477C9.90967 13.8715 11.0633 15.0058 12.4816 15.0058C13.8998 15.0058 15.0534 13.8715 15.0534 12.477C15.0534 11.0826 13.8998 9.94824 12.4816 9.94824Z" fill="url(#paint2_linear)"/>
<defs>
<linearGradient id="paint0_linear" x1="9.21428" y1="4.55189" x2="20.0363" y2="10.5796" gradientUnits="userSpaceOnUse">
<stop stop-color="#FF7615"/>
<stop offset="1" stop-color="#FF8F20"/>
</linearGradient>
<linearGradient id="paint1_linear" x1="6.01415" y1="-3.27381" x2="27.5307" y2="8.76835" gradientUnits="userSpaceOnUse">
<stop stop-color="#FF7615"/>
<stop offset="1" stop-color="#FF8F20"/>
</linearGradient>
<linearGradient id="paint2_linear" x1="11.1471" y1="9.28594" x2="15.5381" y2="11.7854" gradientUnits="userSpaceOnUse">
<stop stop-color="#FF7615"/>
<stop offset="1" stop-color="#FF8F20"/>
</linearGradient>
</defs>
</svg>
