<svg width="55" height="55" viewBox="0 0 55 55" fill="none" xmlns="http://www.w3.org/2000/svg">
<g clip-path="url(#clip0)">
<path d="M54.1943 53.3895H47.2469C46.9458 52.264 46.0303 51.3591 44.8517 51.1091L42.8319 50.6808L41.9711 48.9908L39.0948 42.87C38.6516 41.9273 37.1935 42.6126 37.6364 43.5554L39.989 48.5615L38.2485 48.5932L28.1468 35.0393C27.8294 34.6135 27.1712 34.6136 26.8539 35.0393L16.7521 48.5932L15.0118 48.5615L23.1854 31.168H27.4769H27.5238H31.8154L35.8792 39.8159C36.3115 40.7357 37.7795 40.0713 37.3376 39.1306L33.1316 30.1803V26.274V22.0653H48.5349C50.8102 22.0653 52.6613 20.2151 52.6613 17.9409C52.6613 17.4959 52.3006 17.1352 51.8557 17.1352H31.7905C31.4702 16.7564 31.0999 16.4188 30.6873 16.1338C31.664 15.2177 32.2759 13.9172 32.2759 12.4758C32.2759 11.1604 32.2759 9.84501 32.2759 8.52963C32.2759 7.11757 31.7132 5.83517 30.8015 4.892C30.9235 4.51828 30.9883 4.12512 30.9883 3.73066C30.9883 1.67407 29.3145 0.000976562 27.257 0.000976562C25.1996 0.000976562 23.5257 1.67407 23.5257 3.73066C23.5257 4.00835 23.5579 4.28292 23.6183 4.55126C22.6364 5.39334 21.9673 6.59625 21.8205 7.97512C21.7504 8.63404 21.9006 9.27707 22.2383 9.82213V12.4759C22.2383 14.0223 22.9419 15.4072 24.0458 16.3284C23.7379 16.5689 23.457 16.8396 23.207 17.1354H12.8025C11.7609 17.1354 11.7609 18.7467 12.8025 18.7467H22.2504C22.0396 19.2892 21.9116 19.8667 21.8781 20.4604L6.46508 20.454C5.36014 20.454 4.41934 19.7384 4.08257 18.7465H8.45378C9.49545 18.7465 9.49545 17.1352 8.45378 17.1352H3.14435C2.6994 17.1352 2.33868 17.4959 2.33868 17.9409C2.33868 20.2151 4.18978 22.0653 6.46476 22.0653L21.8684 22.0716V26.2739V30.1823L13.0298 48.9907L12.1691 50.6807L10.1492 51.109C8.9708 51.359 8.05524 52.2639 7.75414 53.3894H0.805664C0.360723 53.3894 0 53.7502 0 54.1951C0 54.64 0.360723 55.0008 0.805664 55.0008H54.1943C54.6393 55.0008 55 54.64 55 54.1951C55 53.7502 54.6393 53.3895 54.1943 53.3895ZM27.5004 36.8683L37.1983 49.8803L38.4521 51.6461C38.4169 52.1832 38.4212 52.8935 38.6051 53.3895H16.3958C16.5798 52.8935 16.584 52.1833 16.5488 51.6461L17.8026 49.8803L27.5004 36.8683ZM27.524 29.5566H27.477H23.4796V27.0796H31.5204V29.5566H27.524ZM50.9174 18.7465C50.5807 19.7384 49.6399 20.454 48.5349 20.454H33.1215C33.0874 19.8615 32.9594 19.2862 32.7494 18.7465H50.9174ZM27.257 1.6122C28.426 1.6122 29.377 2.56256 29.377 3.73056C29.377 3.76816 29.3757 3.80554 29.3738 3.84271C28.6687 3.4895 27.8742 3.28948 27.0334 3.28948C26.3677 3.28948 25.7295 3.41345 25.1416 3.64C25.1896 2.51411 26.1186 1.6122 27.257 1.6122ZM23.4227 8.14549C23.6196 6.29579 25.172 4.90081 27.0335 4.90081C29.0357 4.90081 30.6645 6.52857 30.6645 8.52952V8.58463L24.9663 9.58612C24.113 9.7363 23.3309 9.00766 23.4227 8.14549ZM23.8495 11.0822C24.311 11.2256 24.7763 11.256 25.2453 11.1733L30.6645 10.2208V12.4758C30.6645 14.3539 29.1366 15.8819 27.2556 15.8819C25.3775 15.8819 23.8495 14.3539 23.8495 12.4758V11.0822ZM27.2584 17.4932C27.9337 17.4932 28.5779 17.3583 29.1664 17.1153C30.5845 17.7628 31.5204 19.1996 31.5204 20.7722V20.7733V25.4681H23.4796V20.7733V20.7722C23.4796 19.2861 24.3175 17.9111 25.6258 17.2195C26.138 17.3961 26.6868 17.4932 27.2584 17.4932ZM9.48879 53.3895C9.70546 53.0381 10.0597 52.7752 10.4834 52.6854L12.8795 52.1773C13.1174 52.1268 13.3199 51.9716 13.4302 51.7548L14.2161 50.2118H15.5909C15.3478 50.478 14.9373 51.0069 14.9373 51.3891V52.5348C14.9373 53.0062 14.5535 53.3897 14.0816 53.3897H9.48879V53.3895ZM40.9192 53.3895C40.4473 53.3895 40.0635 53.0061 40.0635 52.5347C40.1675 51.6545 40.0178 50.8774 39.41 50.2117H40.7848L41.5707 51.7547C41.6811 51.9715 41.8835 52.1267 42.1214 52.1772L44.5174 52.6853C44.9412 52.7751 45.2955 53.038 45.5121 53.3894H40.9192V53.3895Z" fill="#32AA62"/>
</g>
<defs>
<clipPath id="clip0">
<rect width="55" height="55" fill="#32AA62"/>
</clipPath>
</defs>
</svg>
