<svg width="55" height="55" viewBox="0 0 55 55" fill="none" xmlns="http://www.w3.org/2000/svg">
<g clip-path="url(#clip0)">
<path d="M54.1944 39.5745C54.6393 39.5745 55 39.2138 55 38.7688V37.2106C55 35.6355 53.7973 34.3541 52.3191 34.3541H51.0152V32.7032C51.0152 31.5481 50.0754 30.6084 48.9204 30.6084H42.4353C41.2802 30.6084 40.3405 31.5482 40.3405 32.7032V37.0023C34.5474 36.3266 27.3363 36.3255 21.5333 37.0023V32.7032C21.5333 31.5481 20.5935 30.6084 19.4385 30.6084H18.9261C23.3427 27.9189 28.2821 24.2718 32.1333 20.7199L34.6622 24.1965C35.3426 25.1321 36.6563 25.3366 37.5886 24.6584L42.833 20.8439C42.833 20.8439 42.833 20.8439 42.833 20.8438C43.767 20.1644 43.9743 18.8516 43.2948 17.9174L42.3237 16.5823L43.3782 15.8155C44.5737 14.9458 44.7925 13.2021 43.866 11.9283L39.4928 5.91602C38.5662 4.64243 36.8401 4.3134 35.6446 5.18298L34.59 5.95008L33.619 4.61515C32.9397 3.68079 31.6269 3.47379 30.6926 4.15313L25.4482 7.96767C24.5142 8.647 24.307 9.9598 24.9864 10.8941L27.5152 14.3706C22.4314 17.2327 16.6004 21.4727 12.3059 25.4335L10.4457 22.8763C9.39812 21.4361 7.37129 21.116 5.9313 22.1638L2.52539 24.641C1.08444 25.6893 0.764859 27.7145 1.81297 29.1555L2.11526 29.5711L1.06091 30.338C-0.15843 31.2248 -0.334494 32.9774 0.573111 34.2252L4.94625 40.2372C5.4247 40.8952 6.12595 41.3136 6.87382 41.4248V44.6451C6.87382 46.2202 8.07652 47.5017 9.55475 47.5017H10.8586V49.1525C10.8586 50.3076 11.7985 51.2473 12.9535 51.2473H19.4385C20.5936 51.2473 21.5333 50.3075 21.5333 49.1525V44.8538C23.823 45.1202 26.397 45.2877 29.0407 45.3408C29.0463 45.3411 29.0518 45.3411 29.0573 45.3411C29.4947 45.3411 29.8537 44.9909 29.8626 44.5515C29.8715 44.1067 29.5181 43.7388 29.0732 43.7298C26.4075 43.6761 23.8179 43.5046 21.5333 43.2314V38.6242C27.2328 37.9411 34.5228 37.9269 40.3405 38.6242V43.2314C38.0562 43.5046 35.4665 43.6761 32.8007 43.7298C32.3559 43.7388 32.0023 44.1067 32.0112 44.5514C32.0202 44.9909 32.379 45.3411 32.8166 45.3411C32.8221 45.3411 32.8277 45.3411 32.8331 45.3408C35.477 45.2877 38.0509 45.1202 40.3405 44.8538V49.1525C40.3405 50.3076 41.2803 51.2473 42.4353 51.2473H48.9204C50.0755 51.2473 51.0152 50.3075 51.0152 49.1525V47.5017H52.3191C53.7973 47.5017 55 46.2202 55 44.6451V42.5289C55 42.0838 54.6393 41.7232 54.1944 41.7232C53.7494 41.7232 53.3887 42.0838 53.3887 42.5289V44.6451C53.3887 45.32 52.899 45.8903 52.3192 45.8903H51.0153V35.9656H52.3192C52.8989 35.9656 53.3887 36.5358 53.3887 37.2107V38.7689C53.3886 39.2138 53.7494 39.5745 54.1944 39.5745ZM36.5924 6.48611C37.061 6.14537 37.7928 6.31821 38.1896 6.86402L42.5627 12.8763C42.9598 13.422 42.8991 14.1714 42.4303 14.5123L41.3758 15.2792C40.723 14.3814 36.2014 8.16522 35.5379 7.25299L36.5924 6.48611ZM26.2895 9.94638C26.1355 9.73443 26.1843 9.42517 26.3961 9.27102L31.6405 5.45637C31.8533 5.30179 32.1622 5.35174 32.3158 5.56304C32.6419 6.01141 40.1574 16.3437 40.5465 16.8788C40.5468 16.879 40.5469 16.8793 40.5471 16.8795L41.9916 18.8653C42.1457 19.0772 42.097 19.3865 41.885 19.5406L36.6405 23.3553C36.4276 23.51 36.1214 23.4634 35.9653 23.2486C35.6475 22.8117 26.6731 10.4737 26.2895 9.94638ZM28.4692 15.6825L31.1794 19.4083C26.9877 23.2987 21.1081 27.5994 15.9698 30.4705L13.26 26.7452C17.4405 22.865 23.3236 18.5575 28.4692 15.6825ZM6.87382 37.2106V39.7681C6.63416 39.6789 6.41266 39.5137 6.2496 39.2894L1.87646 33.2772C1.46127 32.7066 1.55409 31.972 2.00891 31.6411L3.06325 30.8743C3.19109 31.0501 4.19193 32.426 7.01293 36.3044C6.9169 36.6096 6.87382 36.9246 6.87382 37.2106ZM10.8586 45.8902H9.55475C8.9751 45.8902 8.48526 45.32 8.48526 44.645C8.48526 43.9171 8.48526 37.9694 8.48526 37.2105C8.48526 36.9291 8.57817 36.6252 8.76219 36.3865C8.98133 36.1017 9.27771 35.9654 9.55475 35.9654H10.8585V45.8902H10.8586ZM10.8586 32.7031V34.354H9.55475C9.48933 34.354 9.42455 34.3573 9.3602 34.3624C9.34882 34.3632 9.33743 34.3641 9.32605 34.3651C8.82718 34.4103 8.36698 34.6014 7.98317 34.8984L3.11621 28.2074C2.59071 27.4851 2.75087 26.4697 3.47328 25.9441L6.87919 23.4669C7.59838 22.9434 8.619 23.1042 9.14246 23.8241C9.72909 24.6305 13.4493 29.7452 14.0771 30.6082H12.9534C11.7985 30.6082 10.8586 31.548 10.8586 32.7031ZM19.922 49.1524C19.922 49.4144 19.7006 49.6358 19.4386 49.6358H12.9536C12.6916 49.6358 12.4702 49.4144 12.4702 49.1524C12.4702 48.3941 12.4702 33.1976 12.4702 32.7032C12.4702 32.4412 12.6916 32.2198 12.9536 32.2198C14.5931 32.2198 15.4984 32.2198 15.9696 32.2198C16.3093 32.2198 16.4236 32.2198 16.4246 32.2198C16.8956 32.2198 17.8003 32.2198 19.4386 32.2198C19.7006 32.2198 19.922 32.4412 19.922 32.7032C19.922 33.7002 19.922 48.5393 19.922 49.1524ZM49.4039 49.1524C49.4039 49.4144 49.1825 49.6358 48.9205 49.6358H42.4354C42.1734 49.6358 41.952 49.4144 41.952 49.1524V32.7032C41.952 32.4412 42.1734 32.2198 42.4354 32.2198H48.9205C49.1825 32.2198 49.4039 32.4412 49.4039 32.7032C49.4039 33.6956 49.4039 48.62 49.4039 49.1524Z" fill="#32AA62"/>
</g>
<defs>
<clipPath id="clip0">
<rect width="55" height="55" fill="white"/>
</clipPath>
</defs>
</svg>
