<svg width="61" height="61" viewBox="0 0 61 61" fill="none" xmlns="http://www.w3.org/2000/svg">
<g clip-path="url(#clip0)">
<path d="M50.7433 54.7877V59.9484C50.7433 60.5294 50.2727 61 49.6917 61H11.3084C10.7274 61 10.2568 60.5294 10.2568 59.9484V54.7877C10.2568 49.3733 14.6459 44.9868 20.0617 44.9855C21.9756 44.9842 23.6608 43.9996 24.6309 42.5064C25.6054 41.0086 25.505 39.7062 25.505 38.6536L25.5247 38.6049C20.8057 36.6516 17.4866 32.0022 17.4866 26.5773V26.1659C15.6128 26.1659 14.2003 24.6851 14.2003 22.9401V17.477C14.1583 15.575 14.245 8.86708 19.0903 4.19667C24.7242 -1.23351 33.6522 -0.789212 40.1196 2.11582C40.3299 2.21047 40.3233 2.51149 40.1104 2.59956L38.4239 3.29361C38.1715 3.39746 38.2254 3.76946 38.4962 3.79838L39.3151 3.88645C43.2362 4.30578 46.8787 6.43526 49.137 9.97914C49.1975 10.0751 49.1804 10.221 49.1028 10.3038C47.7095 11.7774 46.9313 13.7333 46.9313 15.7669V22.9401C46.9313 24.7212 45.4867 26.1659 43.7055 26.1659H43.5136V26.5773C43.5136 32.0022 40.1945 36.6516 35.4755 38.6049L35.4952 38.6536C35.4952 39.6759 35.3865 40.996 36.3693 42.5064C37.3394 43.9996 39.0246 44.9842 40.9385 44.9855C46.3542 44.9868 50.7433 49.3733 50.7433 54.7877Z" fill="#FFDFBA"/>
<path d="M50.7433 54.7877V59.9484C50.7433 60.5291 50.2725 61 49.6917 61H11.3084C10.7277 61 10.2568 60.5291 10.2568 59.9484V54.7877C10.2568 49.3733 14.6466 44.9875 20.061 44.9855C21.9754 44.9848 23.661 43.9991 24.6309 42.5063C28.0162 45.3985 32.982 45.4002 36.3693 42.5063C37.339 43.9991 39.0247 44.9848 40.9392 44.9855C46.3536 44.9875 50.7433 49.3733 50.7433 54.7877Z" fill="#8E59B8"/>
<path d="M49.1363 9.97972C49.1973 10.0756 49.1802 10.2207 49.1023 10.3032C47.7093 11.7778 46.9311 13.7331 46.9311 15.7668V22.94C46.9311 24.5684 45.7043 26.1658 43.5135 26.1658V18.0461C43.5135 14.5614 40.6886 11.7366 37.2039 11.7366H23.796C20.3113 11.7366 17.4864 14.5614 17.4864 18.0461V26.1658C15.6126 26.1658 14.2002 24.685 14.2002 22.94V17.477C14.1581 15.5749 14.2449 8.867 19.0901 4.1966C24.7236 -1.23372 33.6526 -0.789156 40.1189 2.11614C40.3292 2.21066 40.3237 2.51181 40.1103 2.59962L38.4237 3.29393C38.1716 3.39778 38.2247 3.76939 38.4958 3.79844L39.3149 3.88638C43.2367 4.30531 46.8783 6.43479 49.1363 9.97972Z" fill="#42434D"/>
<path d="M43.5133 26.5772C43.5133 33.767 37.6838 39.5907 30.4998 39.5907C23.7312 39.5907 17.4863 34.3287 17.4863 26.1658V18.0462C17.4863 14.5614 20.3112 11.7366 23.7959 11.7366H37.2038C40.6885 11.7366 43.5133 14.5614 43.5133 18.0462V26.5772Z" fill="#FFEBD2"/>
<path d="M41.1473 58.7653H37.9925C37.4118 58.7653 36.9409 58.2944 36.9409 57.7137C36.9409 57.133 37.4118 56.6621 37.9925 56.6621H41.1473C41.7281 56.6621 42.1989 57.133 42.1989 57.7137C42.1989 58.2944 41.7282 58.7653 41.1473 58.7653Z" fill="white"/>
<path d="M27.5533 34.9806C29.6929 36.3192 28.0057 39.6018 25.6635 38.6617C20.848 36.7289 17.4863 32.0361 17.4863 26.5773V18.0462C17.4863 16.7207 17.8951 15.4906 18.5934 14.475C19.4497 13.2298 21.4298 13.7799 21.4298 15.4172V23.9483C21.4298 28.7475 23.9526 32.7278 27.5533 34.9806Z" fill="#FFF3E4"/>
<path d="M35.6437 40.8118C32.4052 42.1674 28.8462 42.2726 25.3564 40.8118C25.5347 40.0722 25.505 39.5932 25.505 38.6534L25.5247 38.6047C28.6903 39.9187 32.3037 39.9213 35.4755 38.6047L35.4952 38.6534C35.4952 39.5936 35.4655 40.0725 35.6437 40.8118Z" fill="#FFD6A6"/>
<path d="M25.358 48.1609C24.8719 48.3138 24.3506 48.3981 23.7917 48.4029C18.3633 48.4508 13.9374 52.743 13.9374 58.1716V59.1597C13.9374 60.1761 13.1135 61 12.0971 61H11.3084C10.7277 61 10.2568 60.5291 10.2568 59.9484V54.7877C10.2568 49.3731 14.6466 44.9875 20.061 44.9855C21.9754 44.9848 23.661 43.9991 24.6309 42.5063C25.0218 42.8402 25.4403 43.1403 25.8812 43.4031C27.8205 44.5587 27.5114 47.4838 25.358 48.1609Z" fill="#7B519C"/>
<path d="M35.6422 48.1609C36.1283 48.3138 36.6496 48.3981 37.2085 48.4029C42.6369 48.4508 47.0628 52.743 47.0628 58.1716V59.1597C47.0628 60.1761 47.8867 61 48.9031 61H49.6918C50.2725 61 50.7434 60.5291 50.7434 59.9484V54.7877C50.7434 49.3731 46.3536 44.9875 40.9392 44.9855C39.0248 44.9848 37.3392 43.9991 36.3694 42.5063C35.9784 42.8402 35.5599 43.1403 35.119 43.4031C33.1799 44.5587 33.4888 47.4838 35.6422 48.1609Z" fill="#7B519C"/>
<path d="M40.1102 2.59956C38.5646 3.23564 38.3443 3.3759 37.8088 3.29282C29.176 1.95467 21.6018 5.52655 19.0296 13.9121V13.9134C18.0674 15.0202 17.4864 16.4662 17.4864 18.0462V22.9786C17.4864 25.1065 14.2002 25.2546 14.2002 22.9401V17.477C14.1581 15.575 14.2449 8.86708 19.0901 4.19667C24.724 -1.23351 33.6521 -0.789212 40.1194 2.11582C40.3297 2.21047 40.3231 2.51149 40.1102 2.59956Z" fill="#4D4E59"/>
</g>
<defs>
<clipPath id="clip0">
<rect width="61" height="61" fill="white"/>
</clipPath>
</defs>
</svg>
