<svg width="55" height="55" viewBox="0 0 55 55" fill="none" xmlns="http://www.w3.org/2000/svg">
<g clip-path="url(#clip0)">
<path d="M19.0938 40.8967C18.9876 41.0897 18.8232 41.1476 18.6687 41.1476C18.5143 41.1476 18.3599 41.0897 18.2537 40.8967L17.143 38.8108V43.0401C17.143 43.3011 16.8245 43.4362 16.5157 43.4362C16.1968 43.4362 15.8879 43.3011 15.8879 43.0401V37.0047C15.8879 36.5415 16.1968 36.3774 16.5157 36.3774C16.9693 36.3774 17.1724 36.4739 17.4909 37.0433L18.6788 39.2065L19.8663 37.0433C20.1852 36.4739 20.3976 36.3774 20.8516 36.3774C21.1701 36.3774 21.4789 36.5415 21.4789 37.0047V43.0401C21.4789 43.3011 21.1604 43.4362 20.8516 43.4362C20.5327 43.4362 20.2238 43.3011 20.2238 43.0401V38.888L19.0938 40.8967Z" fill="#32AA62"/>
<path d="M24.974 39.4091H26.4418C26.6927 39.4091 26.8375 39.6508 26.8375 39.9114C26.8375 40.1334 26.7121 40.3944 26.4418 40.3944H24.974V42.3351H27.7065C27.9579 42.3351 28.1027 42.5957 28.1027 42.8953C28.1027 43.1559 27.9772 43.4362 27.7065 43.4362H24.269C23.9892 43.4362 23.7185 43.3007 23.7185 43.0401V36.7731C23.7185 36.5125 23.9887 36.377 24.269 36.377H27.7065C27.9772 36.377 28.1027 36.6573 28.1027 36.9179C28.1027 37.2175 27.9579 37.4781 27.7065 37.4781H24.974V39.4091Z" fill="#32AA62"/>
<path d="M33.2492 43.0401L31.173 39.1582V43.0401C31.173 43.3011 30.8545 43.4362 30.5452 43.4362C30.2267 43.4362 29.9175 43.3011 29.9175 43.0401V36.7731C29.9175 36.5029 30.2267 36.3774 30.5452 36.3774C30.9993 36.3774 31.1826 36.4739 31.4822 37.0433L33.3457 40.6453V36.7635C33.3457 36.4932 33.6546 36.377 33.9735 36.377C34.2823 36.377 34.6008 36.4928 34.6008 36.7635V43.0401C34.6008 43.3007 34.2823 43.4362 33.9735 43.4362C33.6739 43.4362 33.4133 43.3397 33.2492 43.0401Z" fill="#32AA62"/>
<path d="M40.1918 36.7635C40.1918 36.4932 40.5006 36.3774 40.8191 36.3774C41.1284 36.3774 41.4469 36.4932 41.4469 36.7635V41.2827C41.4469 42.8953 40.4234 43.4941 39.1293 43.4941C37.8256 43.4941 36.8118 42.8953 36.8118 41.2827V36.7635C36.8118 36.4932 37.1206 36.3774 37.4395 36.3774C37.7484 36.3774 38.0668 36.4932 38.0668 36.7635V41.2827C38.0668 42.0359 38.463 42.3935 39.1293 42.3935C39.7957 42.3935 40.1914 42.0359 40.1914 41.2827V36.7635H40.1918Z" fill="#32AA62"/>
<path d="M42.6742 45.348H38.084C37.6334 45.348 37.2683 45.7131 37.2683 46.1633C37.2683 46.614 37.6334 46.9786 38.084 46.9786H42.6742C43.1249 46.9786 43.4895 46.614 43.4895 46.1633C43.4895 45.7131 43.1249 45.348 42.6742 45.348Z" fill="#32AA62"/>
<path d="M34.2897 45.348H15.712C15.2618 45.348 14.8967 45.7131 14.8967 46.1633C14.8967 46.614 15.2618 46.9786 15.712 46.9786H34.2897C34.7404 46.9786 35.105 46.614 35.105 46.1633C35.105 45.7131 34.7404 45.348 34.2897 45.348Z" fill="#32AA62"/>
<path d="M42.6741 32.8971H15.712C15.2618 32.8971 14.8967 33.2622 14.8967 33.7124C14.8967 34.1627 15.2618 34.5277 15.712 34.5277H42.6741C43.1248 34.5277 43.4894 34.1627 43.4894 33.7124C43.4894 33.2622 43.1248 32.8971 42.6741 32.8971Z" fill="#32AA62"/>
<path d="M42.2205 22.7873H41.4291C41.1236 17.169 37.0168 12.5457 31.642 11.4513L31.7993 9.94701C31.8509 9.45605 31.6906 8.96426 31.3604 8.59794C31.0302 8.23119 30.5577 8.02097 30.0642 8.02097H28.3224C27.8285 8.02097 27.3564 8.23161 27.0257 8.59794C26.6955 8.96468 26.5356 9.45647 26.5872 9.94701L26.7446 11.4513C21.3697 12.5457 17.2629 17.1686 16.9575 22.7869H16.1661C15.4661 22.7869 14.8967 23.3563 14.8967 24.0562V25.7389C14.8967 26.4388 15.4661 27.0082 16.1661 27.0082H42.2201C42.92 27.0082 43.4894 26.4388 43.4894 25.7389V24.0562C43.4894 23.3567 42.9204 22.7873 42.2205 22.7873ZM28.2376 9.68936C28.2603 9.6646 28.2884 9.65202 28.3224 9.65202H30.0642C30.0978 9.65202 30.1263 9.6646 30.149 9.68936C30.1716 9.71454 30.1813 9.74433 30.1775 9.77748L30.0252 11.2344C29.7503 11.2159 29.473 11.2054 29.1935 11.2054C28.9136 11.2054 28.6367 11.2159 28.3618 11.2344L28.2091 9.77748C28.2057 9.74433 28.2154 9.71454 28.2376 9.68936ZM41.8588 25.3776H16.5278V24.4179H19.964C20.4147 24.4179 20.7798 24.0528 20.7798 23.6026C20.7798 23.1523 20.4147 22.7873 19.964 22.7873H18.5915C18.9397 17.2416 23.5614 12.8365 29.1931 12.8365C34.8252 12.8365 39.4468 17.2416 39.7951 22.7873H23.7582C23.3075 22.7873 22.9429 23.1523 22.9429 23.6026C22.9429 24.0528 23.3075 24.4179 23.7582 24.4179H41.8588V25.3776Z" fill="#32AA62"/>
<path d="M48.4993 0H9.88743C8.74271 0 7.81116 0.931549 7.81116 2.07626V3.54912H7.0504C5.65056 3.54912 4.51172 4.68838 4.51172 6.08822C4.51172 7.48806 5.65056 8.62732 7.0504 8.62732H7.81116V12.1139H7.0504C5.65056 12.1139 4.51172 13.2528 4.51172 14.653C4.51172 16.0529 5.65056 17.1917 7.0504 17.1917H7.81116V20.6787H7.0504C5.65056 20.6787 4.51172 21.8176 4.51172 23.2178C4.51172 24.6177 5.65056 25.7565 7.0504 25.7565H7.81116V29.2435H7.0504C5.65056 29.2435 4.51172 30.3823 4.51172 31.7822C4.51172 33.1824 5.65056 34.3213 7.0504 34.3213H7.81116V37.8083H7.0504C5.65056 37.8083 4.51172 38.9471 4.51172 40.347C4.51172 41.7472 5.65056 42.8861 7.0504 42.8861H7.81116V46.3731H7.0504C5.65056 46.3731 4.51172 47.5119 4.51172 48.9118C4.51172 50.3116 5.65056 51.4509 7.0504 51.4509H7.81116V52.9237C7.81116 54.0685 8.74271 55 9.88743 55H48.4993C49.644 55 50.576 54.0685 50.576 52.9237V2.07626C50.576 0.931549 49.644 0 48.4993 0V0ZM7.81075 6.99669H7.0504C6.5498 6.99669 6.14235 6.58924 6.14235 6.08822C6.14235 5.58762 6.5498 5.18017 7.0504 5.18017H7.81075V6.99669ZM7.81075 15.5611H7.0504C6.5498 15.5611 6.14235 15.1536 6.14235 14.653C6.14235 14.152 6.5498 13.745 7.0504 13.745H7.81075V15.5611ZM7.81075 24.1259H7.0504C6.5498 24.1259 6.14235 23.7184 6.14235 23.2178C6.14235 22.7168 6.5498 22.3093 7.0504 22.3093H7.81075V24.1259ZM7.81075 32.6907H7.0504C6.5498 32.6907 6.14235 32.2832 6.14235 31.7822C6.14235 31.2816 6.5498 30.8741 7.0504 30.8741H7.81075V32.6907ZM7.81075 41.255H7.0504C6.5498 41.255 6.14235 40.848 6.14235 40.347C6.14235 39.8464 6.5498 39.4389 7.0504 39.4389H7.81075V41.255ZM7.81075 49.8198H7.0504C6.5498 49.8198 6.14235 49.4124 6.14235 48.9118C6.14235 48.4108 6.5498 48.0037 7.0504 48.0037H7.81075V49.8198ZM48.9449 52.9233C48.9449 53.1692 48.7452 53.3694 48.4993 53.3694H9.88743C9.64153 53.3694 9.4418 53.1692 9.4418 52.9233V2.07626C9.4418 1.83079 9.64153 1.63063 9.88743 1.63063H48.4993C48.7452 1.63063 48.9449 1.83079 48.9449 2.07626V52.9233Z" fill="#32AA62"/>
</g>
<defs>
<clipPath id="clip0">
<rect width="55" height="55.0001" fill="white"/>
</clipPath>
</defs>
</svg>
