<svg width="55" height="49" viewBox="0 0 55 49" fill="none" xmlns="http://www.w3.org/2000/svg">
<path d="M53.3887 22.5585H1.61133C0.721445 22.5585 0 23.28 0 24.1699C0 32.6295 5.13562 40.2533 12.8906 43.4873V46.7285C12.8906 47.6183 13.6121 48.3398 14.502 48.3398H40.498C41.3879 48.3398 42.1094 47.6183 42.1094 46.7285V43.4873C49.9026 40.2373 55 32.5899 55 24.1699C55 23.28 54.2786 22.5585 53.3887 22.5585ZM51.7035 25.7812C51.6025 26.8824 51.3974 27.96 51.0993 29.0038H3.9007C3.60261 27.96 3.39754 26.8824 3.29646 25.7812H51.7035ZM39.9603 40.8629C39.3168 41.0907 38.8867 41.6993 38.8867 42.3818V45.1171H16.1133V42.3818C16.1133 41.6993 15.6832 41.0907 15.0397 40.8629C10.6764 39.3182 7.19909 36.1695 5.17494 32.2265H49.8251C47.801 36.1695 44.3236 39.3182 39.9603 40.8629Z" fill="#32AA62"/>
<path d="M16.6929 15.6413C17.322 16.2706 18.3423 16.2707 18.9716 15.6413C21.3769 13.236 21.3769 9.32255 18.9716 6.91727C17.8203 5.76582 17.8202 3.90226 18.9716 2.7507C19.6009 2.12142 19.6009 1.10124 18.9716 0.471958C18.3424 -0.157319 17.3222 -0.157319 16.6929 0.471958C14.2876 2.87724 14.2876 6.79073 16.6929 9.19601C17.8442 10.3475 17.8443 12.211 16.6929 13.3626C16.0636 13.9919 16.0636 15.012 16.6929 15.6413Z" fill="#32AA62"/>
<path d="M26.3608 15.6413C26.99 16.2706 28.0103 16.2707 28.6396 15.6413C31.0449 13.236 31.0449 9.32255 28.6396 6.91727C27.4882 5.76582 27.4881 3.90226 28.6396 2.7507C29.2689 2.12142 29.2689 1.10124 28.6396 0.471958C28.0104 -0.157319 26.9901 -0.157319 26.3608 0.471958C23.9556 2.87724 23.9556 6.79073 26.3608 9.19601C27.5122 10.3475 27.5123 12.211 26.3608 13.3626C25.7316 13.9919 25.7316 15.012 26.3608 15.6413Z" fill="#32AA62"/>
<path d="M36.0288 15.6413C36.658 16.2706 37.6783 16.2707 38.3076 15.6413C40.7128 13.236 40.7128 9.32255 38.3076 6.91727C37.1563 5.76592 37.1561 3.90226 38.3076 2.7507C38.9368 2.12142 38.9368 1.10124 38.3076 0.471958C37.6784 -0.157319 36.6581 -0.157319 36.0288 0.471958C33.6235 2.87724 33.6235 6.79073 36.0288 9.19601C37.1801 10.3474 37.1803 12.2111 36.0288 13.3626C35.3994 13.9919 35.3994 15.012 36.0288 15.6413Z" fill="#32AA62"/>
</svg>
